<?xml version="1.0" standalone="no"?>
<!DOCTYPE svg PUBLIC "-//W3C//DTD SVG 20010904//EN"
 "http://www.w3.org/TR/2001/REC-SVG-20010904/DTD/svg10.dtd">
<svg version="1.0" xmlns="http://www.w3.org/2000/svg"
 width="736.000000pt" height="736.000000pt" viewBox="0 0 736.000000 736.000000"
 preserveAspectRatio="xMidYMid meet">

<g transform="translate(0.000000,736.000000) scale(0.100000,-0.100000)"
fill="#000000" stroke="none">
<path d="M5178 4220 c-127 -22 -271 -85 -291 -127 -6 -13 -7 -26 -4 -30 4 -3
58 -1 120 6 139 14 290 14 336 1 19 -5 45 -20 58 -32 22 -20 23 -28 17 -78 -8
-63 -37 -162 -88 -303 -20 -54 -36 -105 -36 -112 0 -30 47 -15 90 28 114 113
199 305 217 489 10 109 -8 133 -117 158 -52 11 -234 11 -302 0z"/>
<path d="M1770 4145 c-19 -23 8 -55 128 -151 404 -323 878 -528 1380 -598 156
-22 613 -22 761 0 206 30 422 86 631 163 120 44 390 181 490 249 83 56 85 58
85 97 0 40 0 40 -40 43 -29 2 -70 -9 -142 -37 -251 -100 -638 -194 -958 -233
-142 -17 -639 -17 -795 1 -494 55 -864 162 -1309 381 -112 55 -207 100 -211
100 -4 0 -13 -7 -20 -15z"/>
</g>
</svg>
